<svg id="Capa_1" enable-background="new 0 0 511.998 511.998" height="512" viewBox="0 0 511.998 511.998" width="512" xmlns="http://www.w3.org/2000/svg"><g><path d="m505.316 190.736-52.026 52.026c-7.815 7.815-21.135 4.762-24.772-5.67-5.277-15.148-24.823-19.809-36.345-8.287-11.517 11.518-6.865 31.069 8.287 36.345 10.437 3.639 13.482 16.96 5.67 24.772l-52.553 52.553c-8.909 8.909-23.406 8.909-32.316 0l-38.836-38.836c-20.346 21.139-53.864 21.209-74.306.767-20.418-20.418-20.395-53.937.768-74.306l-39.364-39.364c-8.909-8.909-8.909-23.406 0-32.316l39.364-39.364c-21.138-20.345-21.21-53.863-.768-74.306 20.42-20.42 53.94-20.393 74.306.767l38.836-38.836c8.909-8.909 23.406-8.909 32.316 0l52.553 52.553c7.801 7.801 4.782 21.127-5.67 24.772-15.145 5.274-19.808 24.824-8.287 36.345 11.516 11.516 31.064 6.871 36.345-8.287 3.639-10.435 16.958-13.483 24.772-5.67l52.026 52.026c8.909 8.91 8.909 23.407 0 32.316z"/><path d="m278.56 342.413c-30.173 13.542-66.915 7.946-91.654-16.793s-30.335-61.481-16.793-91.654l-38.067-38.067-12.461 12.461c-20.394-21.178-53.903-21.17-74.306-.767-20.384 20.384-20.43 53.891.768 74.306l-39.365 39.363c-8.909 8.909-8.909 23.406 0 32.315l39.364 39.364c-21.052 20.233-21.291 53.782-.768 74.306 20.485 20.485 54.033 20.324 74.306-.768l38.836 38.836c8.909 8.909 23.406 8.909 32.315 0l52.553-52.553c7.815-7.814 4.762-21.134-5.67-24.771-15.138-5.269-19.814-24.817-8.287-36.345 11.516-11.516 31.064-6.872 36.345 8.287 3.639 10.437 16.96 13.482 24.771 5.67l25.651-25.651z"/></g></svg>