<?xml version="1.0" encoding="iso-8859-1"?>
<!-- Generator: Adobe Illustrator 19.0.0, SVG Export Plug-In . SVG Version: 6.00 Build 0)  -->
<svg version="1.1" id="Capa_1" xmlns="http://www.w3.org/2000/svg" xmlns:xlink="http://www.w3.org/1999/xlink" x="0px" y="0px"
	 viewBox="0 0 396.015 396.015" style="enable-background:new 0 0 396.015 396.015;" xml:space="preserve">
<g>
	<g>
		<g>
			<path d="M194.35,113.894c-43.74,0.285-79.127,35.673-79.412,79.412c-0.278,38.743,27.619,71.954,65.829,78.367
				c8.97-46.566,45.385-82.981,91.951-91.951C265.908,141.74,232.937,114.045,194.35,113.894z"/>
			<path d="M178.154,294.139c0-2.09,0.522-4.702,0.522-6.792c-51.776-8.776-86.634-57.864-77.857-109.64
				c8.776-51.776,57.864-86.634,109.639-77.857c40.032,6.786,71.338,38.242,77.932,78.305h6.792
				c32.38,0.16,63.234,13.788,85.159,37.616l6.792-1.567v-41.273l-33.959-5.747c-3.103-0.379-5.622-2.688-6.269-5.747
				c-3.892-18.739-11.149-36.618-21.42-52.767c-1.61-2.554-1.61-5.805,0-8.359l19.853-28.212L316.08,42.841l-28.212,19.853
				c-2.565,2.001-6.1,2.209-8.882,0.522c-15.909-10.48-33.623-17.92-52.245-21.943c-3.14-0.852-5.427-3.555-5.747-6.792L215.248,0
				h-41.273l-5.747,34.482c-0.257,3.377-2.526,6.266-5.747,7.314c-18.739,3.892-36.618,11.149-52.767,21.42
				c-2.554,1.61-5.805,1.61-8.359,0L73.142,43.363L43.884,72.62l19.853,28.212c1.587,2.748,1.587,6.134,0,8.882
				c-10.48,15.909-17.92,33.623-21.943,52.245c-0.852,3.14-3.555,5.427-6.792,5.747l-34.482,5.747v41.273l34.482,5.747
				c3.377,0.257,6.266,2.526,7.314,5.747c3.892,18.739,11.149,36.618,21.42,52.767c1.61,2.554,1.61,5.805,0,8.359l-19.853,28.212
				l29.257,29.257l28.212-19.853c2.748-1.587,6.134-1.587,8.882,0c16.051,10.097,33.726,17.344,52.245,21.42
				c3.059,0.647,5.368,3.166,5.747,6.269l5.747,33.959h41.273l1.045-6.269C192.004,358.264,178.156,326.963,178.154,294.139z"/>
			<path d="M294.66,193.306c-55.976-0.288-101.587,44.857-101.875,100.833c-0.288,55.976,44.857,101.587,100.833,101.875
				s101.587-44.857,101.875-100.833c0.002-0.347,0.002-0.695,0-1.042C395.207,238.569,350.229,193.592,294.66,193.306z
				 M354.742,283.167L354.742,283.167l-78.367,52.245c-1.125,1.064-2.632,1.629-4.18,1.567c-2.655,0.238-5.169-1.229-6.269-3.657
				l-31.347-47.02c-2.308-3.462-1.373-8.141,2.09-10.449c3.463-2.308,8.141-1.373,10.449,2.09l27.167,40.229l72.098-47.543
				c3.462-2.308,8.141-1.373,10.449,2.09C359.14,276.181,358.204,280.859,354.742,283.167z"/>
		</g>
	</g>
</g>
<g>
</g>
<g>
</g>
<g>
</g>
<g>
</g>
<g>
</g>
<g>
</g>
<g>
</g>
<g>
</g>
<g>
</g>
<g>
</g>
<g>
</g>
<g>
</g>
<g>
</g>
<g>
</g>
<g>
</g>
</svg>
