<svg id="Layer_3" enable-background="new 0 0 64 64" height="512" viewBox="0 0 64 64" width="512" xmlns="http://www.w3.org/2000/svg"><path d="m50.165 57c.161-.526.435-1.014.835-1.414l.586-.586h-37.586c-1.654 0-3 1.346-3 3s1.346 3 3 3h37.586l-.586-.586c-.4-.4-.674-.888-.835-1.414h-34.165v-2z"/><path d="m23 47h26v2h-26z"/><path d="m44.707 7.293 2.293 2.293v-6.586h-6v6.586l2.293-2.293c.391-.391 1.023-.391 1.414 0z"/><path d="m17 53v-50h-6v51.026c.838-.635 1.87-1.026 3-1.026z"/><path d="m23 39h26v2h-26z"/><path d="m31 24.5c0-.827-.673-1.5-1.5-1.5s-1.5.673-1.5 1.5v2.5h3z"/><path d="m49 3v9c0 .404-.244.769-.617.924-.124.051-.254.076-.383.076-.26 0-.516-.102-.707-.293l-3.293-3.293-3.293 3.293c-.287.285-.716.371-1.09.217-.373-.155-.617-.52-.617-.924v-9h-20v50h34v-50zm2 47c0 .552-.448 1-1 1h-28c-.552 0-1-.448-1-1v-4c0-.552.448-1 1-1h28c.552 0 1 .448 1 1zm0-8c0 .552-.448 1-1 1h-28c-.552 0-1-.448-1-1v-4c0-.552.448-1 1-1h28c.552 0 1 .448 1 1zm0-8c0 .552-.448 1-1 1h-28c-.552 0-1-.448-1-1v-16c0-.552.448-1 1-1h28c.552 0 1 .448 1 1z"/><path d="m23 33h26v-14h-26zm18-12h5c.347 0 .668.18.851.474.182.295.199.663.044.973l-3.277 6.553h3.382v2h-5c-.347 0-.668-.18-.851-.474-.182-.295-.199-.663-.044-.973l3.277-6.553h-3.382zm-6 4h4v2h-4zm-9-.5c0-1.93 1.57-3.5 3.5-3.5s3.5 1.57 3.5 3.5v6.5h-2v-2h-3v2h-2z"/></svg>