<?xml version="1.0" encoding="iso-8859-1"?>
<!-- Generator: Adobe Illustrator 19.0.0, SVG Export Plug-In . SVG Version: 6.00 Build 0)  -->
<svg version="1.1" id="Capa_1" xmlns="http://www.w3.org/2000/svg" xmlns:xlink="http://www.w3.org/1999/xlink" x="0px" y="0px"
	 viewBox="0 0 512 512" style="enable-background:new 0 0 512 512;" xml:space="preserve">
<g>
	<g>
		<path d="M402.686,173.094L258.293,56.587L109.438,173.094H0v282.319h512V173.094H402.686z M258.01,94.905l96.903,78.188h-196.8
			L258.01,94.905z M188.739,360.839L188.739,360.839H123.97v-90.88h63.615v21.76H148.93v12.8h33.024v20.224H148.93v14.337h39.809
			V360.839z M277.057,360.839h-26.881l-15.488-27.393L219.2,360.839h-27.008l29.312-44.8l-30.336-46.08h27.008l16.512,28.672
			l16.513-28.672h26.88l-30.336,46.08L277.057,360.839z M284.48,360.839v-90.88h24.959v90.88H284.48z M395.839,291.719h-0.001
			h-26.111v69.12h-24.961v-69.12h-26.24v-21.76h77.313V291.719z"/>
	</g>
</g>
<g>
</g>
<g>
</g>
<g>
</g>
<g>
</g>
<g>
</g>
<g>
</g>
<g>
</g>
<g>
</g>
<g>
</g>
<g>
</g>
<g>
</g>
<g>
</g>
<g>
</g>
<g>
</g>
<g>
</g>
</svg>
